<svg xmlns="http://www.w3.org/2000/svg" width="65" height="699" class="pos line-drawing">
  <path fill="none" stroke="#fff" d="M3.2 18.5l1-1.3v-3.4s-2-.3-2-.8V9.2c0-.4 2-.7 2-.7V7.1l2.3-2.3s12.6-1.5 26.1-1.5c13.6 0 26.1 1.5 26.1 1.5L61 7.1v1.4s2 .3 2 .7V13c0 .5-2 .8-2 .8v3.4l1 1.3v20.9l-1 1.5v3.3s1.9.4 1.9.9v3.8s1 .2 1 .4v3.5c0 .3-1 .4-1 .4v3.4c0 .4-2 .7-2 .7v1s2 .2 2 .6v56c0 .3-2 .4-2 .4v.9s2 .1 2 .5v3.7c0 .4-2 .6-2 .6v3.2s2 .1 2 .4v312.3c0 .2-1.3.2-1.3.2v1.6s1.3.1 1.3.4v3.6c0 .4-2 .4-2 .4v7.7l.6 1.1v140.6l-.6 1.2v7.3s2 .1 2 .6v3.7c0 .6-1.9.7-1.9.7v1.7l-2.3 2.3h-2.2l-3.7 3.7V678l-4.1 4.2-10.2.5-2.9 12.9-.9.9h-4.4l-.9-.9-2.9-12.9-10.2-.5-4.1-4.2v-64.6l-3.7-3.7H6.4l-2.3-2.3v-1.7s-1.9-.1-1.9-.7v-3.7c0-.5 2-.6 2-.6v-7.3l-.6-1.2V451.6l.6-1.1v-7.7s-2 0-2-.4v-3.6c0-.3 1.3-.4 1.3-.4V437s-1.3 0-1.3-.2V124.5c0-.3 2-.4 2-.4V121s-2-.1-2-.6v-3.7c0-.4 2-.5 2-.5v-.9s-2-.1-2-.4v-56c0-.4 2-.6 2-.6v-1s-2-.3-2-.7v-3.4s-1-.2-1-.4v-3.5c0-.3 1-.4 1-.4v-3.8c0-.4 1.9-.9 1.9-.9v-3.3l-1-1.5V18.5z"/>
  <path fill="none" stroke="#fff" d="M4.2 8.5c1.1-.2 13.3-.7 28.4-.7s27.3.4 28.4.7M4.2 44c1.1-.2 13.3-.7 28.4-.7s27.3.5 28.4.7M2.3 48.7c2-.7 15.2-1.5 30.4-1.5S61 48 63 48.7m-20.1 2.7c11 .2 20 .7 20.8 1.5m-41.3-1.5c-11 .2-20 .7-20.8 1.5m41.3 2.7c11 .2 18.6.6 19.4 1.4m-39.9-1.4c-11 .2-18.6.6-19.4 1.4m-.4-43.7s.4-1.5 30-1.5 30 1.5 30 1.5m-1.5 44.9c-.9-.1-10.8-.7-18.2-.7m-38.7.7c.9-.1 10.8-.7 18.2-.7M42.9 114c11 .2 18.6.3 19.4 1.1M22.4 114c-11 .2-18.6.3-19.4 1.1m39.9 4.6c11 .2 18.6.3 19.4 1.1m-39.9-1.1c-11 .2-18.6.3-19.4 1.1m58.1-4.6c-.9-.1-10.8-.5-18.2-.5m-38.7.5c.9-.1 10.8-.5 18.2-.5m38.7 8.4c-.9-.1-10.8-.5-18.2-.5m-38.7.5c.9-.1 10.8-.5 18.2-.5"/>
  <path fill="none" stroke="#fff" d="M42.9 47.5v153.6c0 6.3-4.1 8.8-10.2 8.8s-10.2-2.5-10.2-8.8V47.5"/>
  <path fill="none" stroke="#fff" d="M32.6 112.1c1.6 0 1.6 1.4 1.6 2.9v78.1c0 2.5-.8 2.6-1.6 2.6s-1.6-.1-1.6-2.6V115c0-1.5.1-2.9 1.6-2.9z"/>
  <path fill="none" stroke="#fff" d="M31 129c.5-.2 1-.3 1.6-.3s1.1.1 1.6.3m-3.2 7.6c.5.2 1 .3 1.6.3.6 0 1.1-.1 1.6-.3m-3.2 6.6c.5-.2 1-.3 1.6-.3s1.1.1 1.6.3m-3.2 7.6c.5.2 1 .3 1.6.3.6 0 1.1-.1 1.6-.3m-3.2 6.8c.5-.2 1-.3 1.6-.3s1.1.1 1.6.3m-3.2 7.6c.5.2 1 .3 1.6.3.6 0 1.1-.1 1.6-.3m-3.2 6.6c.5-.2 1-.3 1.6-.3s1.1.1 1.6.3m-3.2 7.6c.5.2 1 .3 1.6.3.6 0 1.1-.1 1.6-.3M3.5 437s8.9.2 29.1.2 29.1-.2 29.1-.2m-57.5 5.9s8.2.1 28.4.1 28.4-.1 28.4-.1m-58.2-4.2c.1.2 9.7.4 29.9.4s29.8-.2 29.9-.4M3.1 601c.3.5 10.5 1.3 29.5 1.3s29.2-.9 29.5-1.3m-57.9 4.7c1.2.1 18.6.5 28.5.5s27.3-.5 28.5-.5m-57 1.7s10.1 1.1 28.5 1.1 28.5-1.1 28.5-1.1m-48.8 6s6 .8 20.3.8 20.3-.8 20.3-.8m-14.4 69.4c-2.1.1-4.3.1-5.9.1-1.7 0-3.9-.1-6.1-.1M12.4 678s4.1.9 20.3.9S53 678 53 678M34.2 113.8h-3.1m3.1 1.5H31m3.2 4.1H31m3.2 4H31m1.6 361.5c6 0 10.9 4.9 10.9 10.9s-4.9 10.9-10.9 10.9-10.9-4.9-10.9-10.9 4.9-10.9 10.9-10.9zm0 60.8c6 0 10.9 4.9 10.9 10.9s-4.9 10.9-10.9 10.9-10.9-4.9-10.9-10.9 4.9-10.9 10.9-10.9zm-5.8 73.5c1.7 0 3 1.4 3 3 0 1.7-1.4 3-3 3-1.7 0-3-1.4-3-3s1.3-3 3-3zm19.8-.2c1.5 0 2.4 1.4 2.4 3 0 1.7-.9 3-2.4 3s-2.7-1.4-2.7-3c0-1.3 1.2-3 2.7-3zm0 12.2c1.5 0 2.4 1.4 2.4 3 0 1.7-.9 3-2.4 3s-2.7-1.4-2.7-3c0-1.3 1.2-3 2.7-3zm0 12.1c1.5 0 2.4 1.4 2.4 3 0 1.7-.9 3-2.4 3s-2.7-1.4-2.7-3c0-1.3 1.2-3 2.7-3zm0 12.2c1.5 0 2.4 1.4 2.4 3 0 1.7-.9 3-2.4 3s-2.7-1.4-2.7-3c0-1.3 1.2-3 2.7-3zm0 12.1c1.5 0 2.4 1.4 2.4 3 0 1.7-.9 3-2.4 3s-2.7-1.4-2.7-3c0-1.3 1.2-3 2.7-3zM12.4 619c.2-.3.4-.4.6-.4.6 0 1.1 1.4 1.1 3 0 1.7-.5 3-1.1 3-.2 0-.4-.2-.6-.4m0 7c.2-.3.4-.4.6-.4.6 0 1.1 1.4 1.1 3 0 1.7-.5 3-1.1 3-.2 0-.4-.2-.6-.4m0 7c.2-.3.4-.4.6-.4.6 0 1.1 1.4 1.1 3 0 1.7-.5 3-1.1 3-.2 0-.4-.2-.6-.4m0 6.9c.2-.3.4-.4.6-.4.6 0 1.1 1.4 1.1 3 0 1.7-.5 3-1.1 3-.2 0-.4-.2-.6-.4m0 6.9c.2-.3.4-.4.6-.4.6 0 1.1 1.4 1.1 3 0 1.7-.5 3-1.1 3-.2 0-.4-.2-.6-.4m14.4-41.4c1.7 0 3 1.4 3 3 0 1.7-1.4 3-3 3-1.7 0-3-1.4-3-3 0-1.7 1.3-3 3-3zm0 12.1c1.7 0 3 1.4 3 3 0 1.7-1.4 3-3 3-1.7 0-3-1.4-3-3s1.3-3 3-3zm0 12.1c1.7 0 3 1.4 3 3 0 1.7-1.4 3-3 3-1.7 0-3-1.4-3-3s1.3-3 3-3zm0 12.2c1.7 0 3 1.4 3 3 0 1.7-1.4 3-3 3-1.7 0-3-1.4-3-3s1.3-3 3-3zm26.1-1.7c-.2.7-.5 1.2-.9 1.2-.6 0-1.1-1.4-1.1-3 0-1.7.5-3 1.1-3 .3 0 .7.5.9 1.2m0-8.7c-.2.7-.5 1.2-.9 1.2-.6 0-1.1-1.4-1.1-3 0-1.7.5-3 1.1-3 .3 0 .7.5.9 1.2m0-8.5c-.2.7-.5 1.2-.9 1.2-.6 0-1.1-1.4-1.1-3 0-1.7.5-3 1.1-3 .3 0 .7.5.9 1.2m0-8.4c-.2.7-.5 1.2-.9 1.2-.6 0-1.1-1.4-1.1-3 0-1.7.5-3 1.1-3 .3 0 .7.5.9 1.2m-16 35.7c1.9 0 3.4 1.4 3.4 3 0 1.7-1.5 3-3.4 3s-3.4-1.4-3.4-3c-.1-1.7 1.5-3 3.4-3zm0-12.2c1.9 0 3.4 1.4 3.4 3 0 1.7-1.5 3-3.4 3s-3.4-1.4-3.4-3c-.1-1.7 1.5-3 3.4-3zm0-12.2c1.9 0 3.4 1.4 3.4 3 0 1.7-1.5 3-3.4 3s-3.4-1.4-3.4-3c-.1-1.6 1.5-3 3.4-3zm0-12.1c1.9 0 3.4 1.4 3.4 3 0 1.7-1.5 3-3.4 3s-3.4-1.4-3.4-3c-.1-1.7 1.5-3 3.4-3zm-18.7 36.2c1.4 0 2.5 1.4 2.5 3 0 1.7-.8 3-2.5 3-1.2 0-2.2-1.4-2.2-3-.1-1.7.6-3 2.2-3zm0-12.2c1.4 0 2.5 1.4 2.5 3 0 1.7-.8 3-2.5 3-1.2 0-2.2-1.4-2.2-3-.1-1.6.6-3 2.2-3zm0-12.1c1.4 0 2.5 1.4 2.5 3 0 1.7-.8 3-2.5 3-1.2 0-2.2-1.4-2.2-3-.1-1.7.6-3 2.2-3zm0-12.1c1.4 0 2.5 1.4 2.5 3 0 1.7-.8 3-2.5 3-1.2 0-2.2-1.4-2.2-3-.1-1.6.6-3 2.2-3z"/>
</svg>
