<svg id="Layer_1" data-name="Layer 1" xmlns="http://www.w3.org/2000/svg" viewBox="0 0 306 306">
  <defs>
    <style>
      .cls-1 {
        fill: none;
      }

      .cls-2 {
        fill: #aaacae;
      }
    </style>
  </defs>
  <title>bang-olphans</title>
  <g>
    <path class="cls-1" d="M0,0H306V306H0Z"/>
    <path class="cls-2" d="M264.87,191.81a22.6,22.6,0,0,0,16.75-7,23,23,0,0,0,7-16.75,24,24,0,0,0-23.78-23.78,24.68,24.68,0,0,0-16.75,7A24.4,24.4,0,0,0,241.36,168a23.9,23.9,0,0,0,6.76,16.75A23.5,23.5,0,0,0,264.87,191.81ZM247.31,168a17.85,17.85,0,0,1,5.13-12.43,18.33,18.33,0,0,1,12.43-5.13,17.36,17.36,0,0,1,12.43,5.13A17,17,0,0,1,282.7,168a17.76,17.76,0,0,1-17.83,17.57,18.32,18.32,0,0,1-12.43-5.14A17.83,17.83,0,0,1,247.31,168Zm-14.06-3.78a17.88,17.88,0,0,1,2.44,9.19,18.45,18.45,0,0,1-18.38,18.37h-9.19V106.69h6.22a26.76,26.76,0,0,1,27,27.29A26.58,26.58,0,0,1,227,157.76,23.7,23.7,0,0,1,233.25,164.25Zm-4.05-15.4a21.2,21.2,0,0,0,0-30,21.8,21.8,0,0,0-14.86-6.21v42.42a20.64,20.64,0,0,0,14.86-6.21ZM214.34,185.6h3a12.11,12.11,0,0,0,12.16-12.06v-.1a12.5,12.5,0,0,0-3.51-8.65,12.12,12.12,0,0,0-8.65-3.78h-3ZM270.81,108l-3.24,3.25-.27.27v-.27a3.51,3.51,0,0,0-2.43-.81,2.93,2.93,0,0,0-2.43,1.08,2.41,2.41,0,0,0-1.08,2.16,3.42,3.42,0,0,0,1.08,2.43l11.08,11.08,3.24-3.24,3.52,3.24v.27l-3.52,3.24,4.86,4.59-3.51,3.52-4.59-4.6a22.65,22.65,0,0,0-3,2.7,11.17,11.17,0,0,1-6.21,3,9.85,9.85,0,0,1-7.29-2.71,9.34,9.34,0,0,1-2.71-6.75,9,9,0,0,1,2.71-6.76l1.89-1.89,1.08-1.08a.26.26,0,0,0-.27-.27,8.34,8.34,0,0,1-3.25-6.76,8.2,8.2,0,0,1,2.44-5.67,8.16,8.16,0,0,1,11.88-.27V108Zm-.81,22.7-6.48-6.48-3,2.7a5.69,5.69,0,0,0-1.35,3.51,4.31,4.31,0,0,0,1.35,3.25,4.64,4.64,0,0,0,6.48,0Z"/>
    <path d="M17.35,178h3.78c3,0,4.87.81,4.87,3.51,0,1.89-1.08,2.71-3,3.25,1.9.27,3.25,1.35,3.25,3.24,0,3-2.44,3.78-5.14,3.78H17.35V178Zm2.16,12.16h1.35c1.89,0,3.24-.54,3.24-2.43s-1.62-2.16-3.51-2.16H19.51v4.59Zm0-6.21h1.08c1.9,0,3.52-.28,3.52-2.44,0-1.62-1.62-1.89-2.71-1.89H19.51ZM34.1,178h2.16l5.68,13.78H39.78l-1.35-3.51H31.94l-1.62,3.51H28.43L34.1,178Zm1.09,1.89-2.71,6.76h5.41ZM44.91,178h2.71l6.21,11.08V178h1.89v13.78H53.29l-6.22-11.35v11.35H44.91V178Zm25.67,2.43a7.8,7.8,0,0,0-3.78-1.08,5.41,5.41,0,1,0,0,10.81c1.35,0,1.62,0,2.16-.27v-4H66v-1.62h4.86v7a13.87,13.87,0,0,1-4.32.54c-4.33,0-7-2.7-7-7s3-7,7.3-7a7.15,7.15,0,0,1,3.78.81v1.89Zm34.59-2.7c4,0,6.49,3,6.49,7,0,4.32-2.44,7-6.49,7-4.32,0-6.75-2.7-6.75-7C98.42,180.73,100.85,177.76,105.17,177.76Zm0,12.43c3,0,4.33-2.7,4.33-5.4s-1.35-5.41-4.33-5.41-4.59,2.7-4.59,5.41S101.93,190.19,105.17,190.19ZM115.71,178h1.89v11.89h5.68v1.89h-7.57Zm20.81,8.11c0,3.78-1.9,5.67-5.41,5.67-3.24,0-5.13-1.89-5.13-5.67V178h1.89v7.84c0,2.43.81,4.32,3.24,4.32,2.7,0,3.51-1.89,3.51-4.32V178h1.9Zm4.59-8.11h7.3v1.62h-5.14v4h4.87v1.9h-4.87v6.21h-2.16V178Zm18.37,2.16a5.18,5.18,0,0,0-2.7-.81c-1.08,0-2.43.54-2.43,1.89,0,2.71,6,2.16,6,6.49,0,3-2.17,4.05-4.87,4.05a11.48,11.48,0,0,1-3-.54l.27-1.62a8.33,8.33,0,0,0,3,.54,2.18,2.18,0,0,0,2.43-2.16c0-3-5.67-2.16-5.67-6.49,0-2.43,1.89-3.78,4.32-3.78a13.82,13.82,0,0,1,3,.54l-.27,1.89Zm5.41-2.16h7.56v1.62h-5.67v4h5.14v1.9h-5.14v4.32h5.67v1.89h-7.56V178Zm12.16,0h2.7l5.95,11.08V178h1.89v13.78h-2.43l-6.22-11.35v11.35h-1.89V178ZM90.31,191.54a12.19,12.19,0,0,0-1.89-1.89l-1.08,1.08a3.92,3.92,0,0,1-5.68,0,3.8,3.8,0,0,1,0-5.4L83,184a3.56,3.56,0,0,1-1.35-2.71,3.35,3.35,0,0,1,3.24-3.51c1.63,0,2.44.81,2.44,1.08L86,180.19c0-.27-.54-.54-1.09-.54a1.52,1.52,0,0,0-1.35,1.62c0,.54.27.81.27,1.09.81.54,4.6,4.32,4.6,4.32l1.35-1.35,1.35,1.35-1.35,1.62,2.16,1.89-1.62,1.35Zm-6-6.22A5.47,5.47,0,0,1,83,186.68a2,2,0,0,0,0,2.7,2.13,2.13,0,0,0,3,0l1.08-1.08Z"/>
  </g>
</svg>
