<svg xmlns="http://www.w3.org/2000/svg" xmlns:xlink="http://www.w3.org/1999/xlink" width="521" height="121" viewBox="0 0 521 121">
  <defs>
    <path id="txt-mario-b" d="M443.612,299.736 L430.508,202.104 L404.444,198.504 L387.02,225.576 L378.092,194.76 L350.876,190.872 L313.868,280.008 L350.876,297 L366.428,245.88 L381.404,271.224 L402.86,250.776 L403.148,303.192 L443.612,299.736 Z M555.788,296.424 L519.212,300.312 L515.036,278.136 L489.836,280.584 L485.948,299.736 L451.388,292.392 L479.18,201.816 L529.004,208.872 L555.788,296.424 Z M511.004,256.104 L506.396,232.776 L499.772,231.912 L495.164,254.376 L511.004,256.104 Z M667.676,284.472 L629.804,301.752 L603.596,264.456 L604.028,296.136 L570.62,298.44 L562.412,196.632 L623.756,188.136 L661.916,214.632 L653.996,247.608 L636.86,259.272 L667.676,284.472 Z M621.74,242.568 L625.484,223.128 L602.732,216.072 L603.308,246.456 L621.74,242.568 Z M703.1,295.992 L719.228,212.76 L678.476,204.12 L673.292,298.44 L703.1,295.992 Z M823.628,286.344 L781.004,304.92 L735.356,288.648 L725.564,239.256 L758.396,201.96 L801.74,207.864 L829.964,236.952 L823.628,286.344 Z M800.156,257.544 L787.34,234.504 L762.284,242.712 L762.716,266.616 L782.588,274.536 L800.156,257.544 Z"/>
    <filter id="txt-mario-a" width="101.6%" height="106.9%" x="-.4%" y="-1.7%" filterUnits="objectBoundingBox">
      <feOffset dx="4" dy="4" in="SourceAlpha" result="shadowOffsetOuter1"/>
      <feColorMatrix in="shadowOffsetOuter1" values="0 0 0 0 0   0 0 0 0 0   0 0 0 0 0  0 0 0 0.3 0"/>
    </filter>
  </defs>
  <g fill="none" fill-rule="evenodd" transform="translate(-313 -188)">
    <use fill="#000" filter="url(#txt-mario-a)" xlink:href="#txt-mario-b"/>
    <use fill="#FFF" xlink:href="#txt-mario-b"/>
  </g>
</svg>
